<?xml version="1.0" encoding="UTF-8"?>
<svg width="20px" height="20px" clip-rule="evenodd" fill-rule="evenodd" stroke-linecap="round" stroke-linejoin="round" stroke-miterlimit="1.5" version="1.1" xml:space="preserve" xmlns="http://www.w3.org/2000/svg">
    <g transform="translate(-10 -40)">
        <g id="type_freehand">
            <g transform="translate(0 30)">
                <rect x="10" y="10" width="20" height="20" fill-opacity="0"/>
            </g>
            <g transform="matrix(.88271 0 0 .8265 10.313 40.592)">
                <path d="m4.177 21.062s1.8468-0.57385 2.2658-2.4198c0.479-2.111-0.5638-3.0479-2.9428-5.1419-0.321-0.283-0.556-0.624-0.722-1.002-0.86-1.969 0.171-4.941 0.749-5.899 0.531-0.88 1.904-3.161 5.157-4.015 2.919-0.766 7.9547-0.88103 10.22 3.9587" fill="none" stroke="#000" stroke-width="1px"/>
            </g>
            <g transform="matrix(.88271 0 0 1.1237 11.083 35.081)">
                <ellipse cx="5.534" cy="16.339" rx="3.034" ry="1.839" fill="none" stroke="#000" stroke-width=".84px"/>
            </g>
            <g transform="translate(2.2793e-10 30)">
                <path d="m25 29.5c0 0.133 0.053 0.26 0.146 0.354 0.094 0.093 0.221 0.146 0.354 0.146h2.5c1.105 0 2-0.895 2-2v-2.5c0-0.133-0.053-0.26-0.146-0.354-0.094-0.093-0.221-0.146-0.354-0.146s-0.26 0.053-0.354 0.146c-0.093 0.094-0.146 0.221-0.146 0.354v2.5c0 0.265-0.105 0.52-0.293 0.707-0.187 0.188-0.442 0.293-0.707 0.293h-2.5c-0.133 0-0.26 0.053-0.354 0.146-0.093 0.094-0.146 0.221-0.146 0.354zm-14.5-4.5c-0.133 0-0.26 0.053-0.354 0.146-0.093 0.094-0.146 0.221-0.146 0.354v2.5c0 1.105 0.895 2 2 2h2.5c0.133 0 0.26-0.053 0.354-0.146 0.093-0.094 0.146-0.221 0.146-0.354s-0.053-0.26-0.146-0.354c-0.094-0.093-0.221-0.146-0.354-0.146h-2.5c-0.265 0-0.52-0.105-0.707-0.293-0.188-0.187-0.293-0.442-0.293-0.707v-2.5c0-0.133-0.053-0.26-0.146-0.354-0.094-0.093-0.221-0.146-0.354-0.146zm19-10c0.133 0 0.26-0.053 0.354-0.146 0.093-0.094 0.146-0.221 0.146-0.354v-2.5c0-1.105-0.895-2-2-2h-2.5c-0.133 0-0.26 0.053-0.354 0.146-0.093 0.094-0.146 0.221-0.146 0.354s0.053 0.26 0.146 0.354c0.094 0.093 0.221 0.146 0.354 0.146h2.5c0.265 0 0.52 0.105 0.707 0.293 0.188 0.187 0.293 0.442 0.293 0.707v2.5c0 0.133 0.053 0.26 0.146 0.354 0.094 0.093 0.221 0.146 0.354 0.146zm-14.5-4.5c0-0.133-0.053-0.26-0.146-0.354-0.094-0.093-0.221-0.146-0.354-0.146h-2.5c-1.105 0-2 0.895-2 2v2.5c0 0.133 0.053 0.26 0.146 0.354 0.094 0.093 0.221 0.146 0.354 0.146s0.26-0.053 0.354-0.146c0.093-0.094 0.146-0.221 0.146-0.354v-2.5c0-0.265 0.105-0.52 0.293-0.707 0.187-0.188 0.442-0.293 0.707-0.293h2.5c0.133 0 0.26-0.053 0.354-0.146 0.093-0.094 0.146-0.221 0.146-0.354z"/>
            </g><g transform="matrix(.66599 0 0 .66599 15.668 45.668)" clip-rule="evenodd" fill-rule="evenodd" stroke-linecap="round" stroke-linejoin="round" stroke-miterlimit="2">
                <path d="m11.306 7.176-1.049-1.049 2.116-2.115 1.402 1.402 2.829-2.828c0.78-0.781 2.047-0.781 2.828 0 0.781 0.78 0.781 2.047 0 2.828l-2.828 2.828 1.414 1.415-2.116 2.115-1.06-1.06-8.528 8.528c-0.993 0.992-2.601 0.992-3.593 0-1e-3 0-1e-3 -1e-3 -2e-3 -1e-3 -0.959-0.96-0.96-2.516 1e-3 -3.477zm0.707 0.707-8.586 8.587c-0.569 0.569-0.569 1.491 0 2.061 1e-3 0 1e-3 1e-3 2e-3 1e-3 0.601 0.602 1.576 0.602 2.177 1e-3l8.528-8.528z"/>
            </g>
        </g>
    </g>
</svg>
