<?xml version="1.0" encoding="UTF-8" standalone="no"?>
<svg
   width="16px"
   height="16px"
   version="1.1"
   xml:space="preserve"
   style="fill-rule:evenodd;clip-rule:evenodd;stroke-linejoin:round;stroke-miterlimit:2;"
   id="svg698"
   sodipodi:docname="gear_check.svg"
   inkscape:version="1.2.1 (9c6d41e410, 2022-07-14)"
   xmlns:inkscape="http://www.inkscape.org/namespaces/inkscape"
   xmlns:sodipodi="http://sodipodi.sourceforge.net/DTD/sodipodi-0.dtd"
   xmlns="http://www.w3.org/2000/svg"
   xmlns:svg="http://www.w3.org/2000/svg"><defs
   id="defs702" /><sodipodi:namedview
   id="namedview700"
   pagecolor="#ffffff"
   bordercolor="#000000"
   borderopacity="0.25"
   inkscape:showpageshadow="2"
   inkscape:pageopacity="0.0"
   inkscape:pagecheckerboard="0"
   inkscape:deskcolor="#d1d1d1"
   showgrid="false"
   inkscape:zoom="45.387417"
   inkscape:cx="9.088422"
   inkscape:cy="7.7113884"
   inkscape:window-width="2560"
   inkscape:window-height="1377"
   inkscape:window-x="-8"
   inkscape:window-y="-8"
   inkscape:window-maximized="1"
   inkscape:current-layer="svg698" />
    <g
   transform="matrix(1,0,0,1,-2,-2)"
   id="g692">
        <rect
   x="0"
   y="0"
   width="20"
   height="20"
   style="fill-opacity:0;"
   id="rect690" />
    </g>
    <g
   transform="matrix(1,0,0,1,-314,-42.0002)"
   id="g696">
        <path
   id="path694"
   d="M 322 43.0002 C 321.63375 43.0002 321.2668 43.028638 320.9043 43.086137 C 320.6983 43.689137 320.58822 44.310466 320.57422 44.947466 C 320.17722 45.059466 319.79555 45.217169 319.43555 45.418169 C 318.97455 44.978169 318.45872 44.617137 317.88672 44.336137 C 317.29172 44.768137 316.76989 45.291919 316.33789 45.886919 C 316.61889 46.458918 316.97992 46.974747 317.41992 47.435747 C 317.21892 47.795747 317.05927 48.177419 316.94727 48.574419 C 316.31027 48.588419 315.68894 48.698497 315.08594 48.904497 C 314.97094 49.629496 314.97094 50.370904 315.08594 51.095903 C 315.68894 51.301903 316.31027 51.410028 316.94727 51.424028 C 317.05927 51.821028 317.21892 52.204653 317.41992 52.564653 C 316.97992 53.025653 316.61889 53.541482 316.33789 54.113481 C 316.76989 54.708481 317.29172 55.23031 317.88672 55.662309 C 318.45872 55.38131 318.97455 55.020278 319.43555 54.580278 C 319.79555 54.781278 320.17722 54.940934 320.57422 55.052934 C 320.58822 55.689934 320.6983 56.311263 320.9043 56.914262 C 321.6293 57.029262 322.3707 57.029262 323.0957 56.914262 C 323.3017 56.311263 323.41178 55.689934 323.42578 55.052934 C 323.82278 54.940934 324.20445 54.781278 324.56445 54.580278 C 325.02545 55.020278 325.54128 55.38131 326.11328 55.662309 C 326.70828 55.23031 327.23011 54.708481 327.66211 54.113481 C 327.38111 53.541482 327.02008 53.025653 326.58008 52.564653 C 326.78108 52.204653 326.94073 51.821028 327.05273 51.424028 C 327.68973 51.410028 328.31106 51.301903 328.91406 51.095903 C 329.02906 50.370904 329.02906 49.629496 328.91406 48.904497 C 328.31106 48.698497 327.68973 48.588419 327.05273 48.574419 C 326.94073 48.177419 326.78108 47.795747 326.58008 47.435747 C 327.02008 46.974747 327.38111 46.458918 327.66211 45.886919 C 327.23011 45.291919 326.70828 44.768137 326.11328 44.336137 C 325.54128 44.617137 325.02545 44.978169 324.56445 45.418169 C 324.20445 45.217169 323.82278 45.059466 323.42578 44.947466 C 323.41178 44.310466 323.3017 43.689137 323.0957 43.086137 C 322.7332 43.028638 322.36625 43.0002 322 43.0002 z M 322 46.074419 A 3.9262602 3.9262602 0 0 1 325.92578 50.0002 A 3.9262602 3.9262602 0 0 1 322 53.925981 A 3.9262602 3.9262602 0 0 1 318.07422 50.0002 A 3.9262602 3.9262602 0 0 1 322 46.074419 z " />
    </g>
<path
   d="M 6.2228883,7.0365135 7.5149871,8.2801072 9.6224346,6.1458198 C 9.7917107,5.9742561 9.8969365,5.8358614 10.106244,6.0508879 l 0.675961,0.6919731 c 0.223032,0.2196017 0.210451,0.3477027 0.0011,0.5512923 L 7.9015784,10.130708 c -0.4414906,0.432341 -0.363715,0.458647 -0.8120681,0.01487 L 5.0848502,8.1528185 C 4.9922058,8.0521673 5.001356,7.950373 5.1031504,7.8485786 L 5.8877683,7.0342228 c 0.1178071,-0.1223817 0.212739,-0.1143761 0.3351211,0.00227 z"
   style="clip-rule:evenodd;fill-rule:evenodd;stroke-width:1"
   id="path2565"
   sodipodi:nodetypes="ccccccccccccc" /></svg>
