<?xml version="1.0" encoding="UTF-8" standalone="no"?>
<!DOCTYPE svg PUBLIC "-//W3C//DTD SVG 1.1//EN" "http://www.w3.org/Graphics/SVG/1.1/DTD/svg11.dtd">
<svg width="100%" height="100%" viewBox="0 0 315 77" version="1.1" xmlns="http://www.w3.org/2000/svg" xmlns:xlink="http://www.w3.org/1999/xlink" xml:space="preserve" xmlns:serif="http://www.serif.com/" style="fill-rule:evenodd;clip-rule:evenodd;stroke-linejoin:round;stroke-miterlimit:2;">
    <g transform="matrix(1,0,0,1,-147.2,-124.4)">
        <g>
            <g transform="matrix(1,0,0,1,147.2,124.4)">
                <rect x="0" y="0" width="315" height="77" style="fill-opacity:0;"/>
            </g>
            <g transform="matrix(0.8599,0,0,0.8599,42.6463,22.8222)">
                <path d="M185.8,163C191.2,163 195.8,161.1 199.5,157.4C203.2,153.7 205.1,149.1 205.1,143.7C205.1,138.3 203.2,133.7 199.5,130C195.8,126.3 191.1,124.4 185.6,124.4C182.2,124.4 179,125.3 176,127C173.1,128.7 170.7,131.1 169,134.1C167.3,137.1 166.4,140.4 166.4,143.9C166.4,149.2 168.3,153.7 172,157.4C175.8,161.1 180.4,163 185.8,163ZM174,136.8C175.2,134.7 176.9,133 179,131.8C181.1,130.6 183.4,129.9 185.7,129.9C188.1,129.9 190.4,130.5 192.5,131.8C194.6,133 196.3,134.7 197.5,136.7C198.7,138.7 199.3,141.1 199.3,143.6C199.3,146.2 198.7,148.5 197.5,150.6C196.3,152.7 194.7,154.3 192.6,155.5C190.5,156.7 188.2,157.3 185.7,157.3C181.9,157.3 178.8,156 176.2,153.4C173.5,150.8 172.3,147.6 172.3,143.8C172.2,141.3 172.8,138.9 174,136.8Z" style="fill-rule:nonzero;"/>
            </g>
            <g transform="matrix(0.8599,0,0,0.8599,42.6463,22.8222)">
                <path d="M257.4,162.8C259.4,162.8 261.2,162.5 262.9,161.9C264.5,161.3 266,160.4 267.3,159.2C268.6,158 269.7,156.5 270.7,154.6L271.2,153.6L271,153.5L265,153.5C264.4,154.3 263.9,155 263.4,155.4C262.6,156.1 261.7,156.6 260.6,157C259.5,157.4 258.3,157.6 257.2,157.6C254.8,157.6 252.8,156.8 251.2,155.1C249.8,153.6 249,151.9 248.7,149.7L271.7,149.7L271.7,148.6C271.7,144.9 270.6,141.7 268.6,139.2C265.8,135.6 262,133.8 257.3,133.8C252.7,133.8 249,135.6 246.3,139.1C244.2,141.8 243.1,145 243.1,148.5C243.1,152.2 244.4,155.6 246.9,158.5C249.3,161.2 252.9,162.8 257.4,162.8ZM251.5,141.1C253.1,139.7 255,139 257.2,139C258.6,139 259.9,139.3 261.1,139.9C262.3,140.5 263.3,141.2 264,142.1C264.5,142.7 264.9,143.5 265.3,144.5L249.3,144.5C249.9,143.1 250.7,141.9 251.5,141.1Z" style="fill-rule:nonzero;"/>
            </g>
            <g transform="matrix(0.8599,0,0,0.8599,42.6463,22.8222)">
                <path d="M281.8,151.6C281.8,148.3 281.9,146.1 282.2,144.9C282.6,143.2 283.5,141.8 285,140.6C286.4,139.4 287.9,138.9 289.6,138.9C291.1,138.9 292.3,139.3 293.1,139.9C294,140.6 294.6,141.6 294.9,143.1C295.1,143.7 295.2,145.2 295.2,148.7L295.2,162L300.7,162L300.7,147.7C300.7,144 300.3,141.4 299.6,139.6C298.8,137.8 297.6,136.3 295.9,135.2C294.2,134.1 292.3,133.6 290.2,133.6C288.1,133.6 286.2,134.1 284.4,135C283.4,135.5 282.5,136.2 281.7,137L281.7,134.2L276.2,134.2L276.2,162L281.7,162L281.8,151.6Z" style="fill-rule:nonzero;"/>
            </g>
            <g transform="matrix(0.8599,0,0,0.8599,42.6463,22.8222)">
                <path d="M310.4,162.1L316.2,162.1L316.2,130.9L328.1,130.9L328.1,125.3L298.5,125.3L298.5,130.9L310.4,130.9L310.4,162.1Z" style="fill-rule:nonzero;"/>
            </g>
            <g transform="matrix(0.8599,0,0,0.8599,42.6463,22.8222)">
                <path d="M328.1,158.4C330.8,161.3 334.3,162.8 338.5,162.8C342.7,162.8 346.2,161.3 348.9,158.4C351.6,155.5 352.9,152.1 352.9,148.3C352.9,144.5 351.6,141.1 349.1,138.3C346.3,135.2 342.7,133.7 338.5,133.7C334.2,133.7 330.6,135.3 327.8,138.4C325.3,141.2 324,144.6 324,148.4C324,152.1 325.4,155.5 328.1,158.4ZM332.2,141.8C334,140 336,139.1 338.5,139.1C340.9,139.1 343,140 344.8,141.8C346.6,143.6 347.4,145.8 347.4,148.4C347.4,150 347,151.6 346.2,153C345.4,154.4 344.3,155.5 343,156.3C341.6,157.1 340.1,157.5 338.5,157.5C336.9,157.5 335.4,157.1 334,156.3C332.7,155.5 331.6,154.4 330.8,153C330,151.6 329.6,150 329.6,148.4C329.6,145.7 330.5,143.6 332.2,141.8Z" style="fill-rule:nonzero;"/>
            </g>
            <g transform="matrix(0.8599,0,0,0.8599,42.6463,22.8222)">
                <path d="M370.9,162.8C375.1,162.8 378.6,161.3 381.3,158.4C384,155.5 385.3,152.1 385.3,148.3C385.3,144.5 384,141.1 381.5,138.3C378.7,135.2 375.1,133.7 370.9,133.7C366.6,133.7 363,135.3 360.3,138.4C357.8,141.2 356.5,144.6 356.5,148.4C356.5,152.2 357.9,155.7 360.5,158.5C363.2,161.3 366.7,162.8 370.9,162.8ZM364.6,141.8C366.4,140 368.4,139.1 370.9,139.1C373.3,139.1 375.4,140 377.2,141.8C379,143.6 379.8,145.8 379.8,148.4C379.8,150 379.4,151.6 378.6,153C377.8,154.4 376.7,155.5 375.4,156.3C374,157.1 372.5,157.5 370.9,157.5C369.3,157.5 367.8,157.1 366.4,156.3C365.1,155.5 364,154.4 363.2,153C362.4,151.6 362,150 362,148.4C362,145.7 362.9,143.6 364.6,141.8Z" style="fill-rule:nonzero;"/>
            </g>
            <g transform="matrix(0.8599,0,0,0.8599,42.6463,22.8222)">
                <path d="M394.7,151.6C394.7,148.3 394.8,146.1 395.1,144.9C395.5,143.2 396.4,141.8 397.9,140.6C399.3,139.4 400.8,138.9 402.5,138.9C404,138.9 405.2,139.3 406,139.9C406.9,140.6 407.5,141.6 407.8,143.1C408,143.7 408.1,145.2 408.1,148.7L408.1,162L413.6,162L413.6,147.7C413.6,144 413.2,141.4 412.5,139.6C411.7,137.8 410.5,136.3 408.8,135.2C407.1,134.1 405.2,133.6 403.1,133.6C401,133.6 399.1,134.1 397.3,135C396.3,135.5 395.4,136.2 394.6,137L394.6,134.2L389.1,134.2L389.1,162L394.6,162L394.7,151.6Z" style="fill-rule:nonzero;"/>
            </g>
            <g transform="matrix(0.8599,0,0,0.8599,42.6463,22.8222)">
                <path d="M439.9,162.1L439.9,157L426.8,157L441.3,134.3L419.3,134.3L419.3,139.4L431.5,139.4L417,162.1L439.9,162.1Z" style="fill-rule:nonzero;"/>
            </g>
            <g transform="matrix(0.8599,0,0,0.8599,42.6463,22.8222)">
                <path d="M212.9,185.7L215.5,175.7L215.5,159.4C216.4,160.2 217.5,160.9 218.5,161.4C220.4,162.3 222.4,162.8 224.6,162.8C228.5,162.8 231.9,161.4 234.7,158.5C237.5,155.7 238.9,152.2 238.9,148.1C238.9,144.1 237.5,140.7 234.7,137.9C231.9,135.1 228.5,133.6 224.6,133.6C222.3,133.6 220.3,134.1 218.4,135.1C217.4,135.6 216.4,136.3 215.5,137.2L215.5,134.3L210,134.3L210,175.7L212.9,185.7ZM217.9,141.7C219.6,139.9 221.7,139.1 224.3,139.1C225.9,139.1 227.4,139.5 228.8,140.3C230.2,141.1 231.3,142.2 232.1,143.7C232.9,145.2 233.3,146.7 233.3,148.3C233.3,149.9 232.9,151.5 232.1,152.9C231.3,154.4 230.2,155.5 228.8,156.3C227.4,157.1 226,157.5 224.4,157.5C222.8,157.5 221.3,157.1 219.8,156.3C218.4,155.5 217.3,154.4 216.5,153C215.7,151.6 215.3,150 215.3,148.3C215.3,145.6 216.1,143.5 217.9,141.7ZM214.6,175.7L213.5,180L212.2,180L211,175.7L214.6,175.7Z" style="fill-rule:nonzero;"/>
            </g>
            <g transform="matrix(0.8599,0,0,0.8599,42.6463,22.8222)">
                <path d="M461.6,189.7L452.2,180.3C452.6,179.6 456.2,172.7 452.6,164.9C450.6,167.3 447.5,169.5 443.5,171.5L440.6,168.6L422.9,168.6C422.6,167.5 421.1,166.6 419.4,166.6L409,166.6C407.2,166.6 405.8,167.5 405.5,168.6L308.5,168.6C308.2,167.1 306.3,166 304.1,165.9L303.9,165.9C301.6,166 299.8,167.1 299.5,168.6L221.8,168.6L221.8,170.8L300.6,170.8L300.6,173.3L307.5,173.3L307.5,170.8L406.8,170.8L406.8,172.6L421.9,172.6L421.9,170.8L439.9,170.8L441.6,172.5C414.2,185.1 354.7,189.7 353.2,189.9L150.7,189.9L170.5,170.7L187.3,170.7L187.3,172.6L202.4,172.6L202.4,170.6L203.6,170.6L203.6,169C203.6,167.7 202,166.6 200,166.6L189.7,166.6C188,166.6 186.6,167.4 186.2,168.5L169.4,168.5L147.2,189.9L147.2,201.4L461.5,201.4L461.6,189.7ZM306.5,170.1L306.5,172.5L301.3,172.5L301.3,170.1C301.3,169.5 301.8,169 302.5,168.7C302.6,168.7 302.7,168.6 302.9,168.6C303.2,168.5 303.6,168.5 303.9,168.4C304.3,168.4 304.6,168.5 304.9,168.6C305,168.6 305.1,168.7 305.3,168.7C306,169 306.5,169.5 306.5,170.1ZM421,170.5L421,171.9L407.4,171.9L407.4,169.7C407.4,169.2 408.1,168.8 408.9,168.7L419.6,168.7C420.4,168.8 421.1,169.2 421.1,169.7L421.1,170.5L421,170.5ZM188.1,170.7L188.1,169.7C188.1,169.2 188.8,168.8 189.6,168.7L200.3,168.7C201.1,168.8 201.8,169.2 201.8,169.7L201.8,171.9L188.2,171.9L188.2,170.7L188.1,170.7ZM396,186.9C417.1,183.4 432.9,179.1 443.1,174.3C443.8,174 444.5,173.6 445.2,173.3C447.8,171.9 450,170.5 451.7,169.1C452.6,173.5 451.3,177.3 450.6,178.7C450.6,178.8 450.5,178.9 450.5,179C449.8,179.2 449.1,179.4 448.4,179.7C435.5,183.5 411.9,186.1 391.2,187.7C392.8,187.4 394.4,187.1 396,186.9ZM450.1,181.4L458.6,190L390,190C411.8,188.3 437,185.5 450.1,181.4ZM459.3,199.2L149.5,199.2L149.5,196.8L459.3,196.8L459.3,199.2ZM459.3,194.6L149.5,194.6L149.5,192.2L459.3,192.2L459.3,194.6Z" style="fill-rule:nonzero;"/>
            </g>
        </g>
    </g>
</svg>
